<mxfile host="app.diagrams.net" agent="Mozilla/5.0 (Windows NT 10.0; Win64; x64) AppleWebKit/537.36 (KHTML, like Gecko) Chrome/129.0.0.0 Safari/537.36 Edg/129.0.0.0" version="24.7.17">
  <diagram name="Page-1" id="ln2aeSDSYpyDV8gmIp12">
    <mxGraphModel dx="3126" dy="1849" grid="1" gridSize="10" guides="1" tooltips="1" connect="1" arrows="1" fold="1" page="1" pageScale="1" pageWidth="850" pageHeight="1100" math="0" shadow="0">
      <root>
        <mxCell id="0" />
        <mxCell id="1" parent="0" />
        <mxCell id="vGHhS69KHDKIZuomUPOk-1" value="" style="rounded=1;whiteSpace=wrap;html=1;strokeColor=#0070F2;fillColor=#EBF8FF;arcSize=32;absoluteArcSize=1;imageWidth=64;imageHeight=64;strokeWidth=1.5;fontFamily=Arial;movable=1;resizable=1;rotatable=1;deletable=1;editable=1;locked=0;connectable=1;" vertex="1" parent="1">
          <mxGeometry x="-1449" y="-535" width="796" height="445" as="geometry" />
        </mxCell>
        <mxCell id="vGHhS69KHDKIZuomUPOk-2" value="" style="rounded=1;whiteSpace=wrap;html=1;strokeColor=#0070F2;strokeWidth=1.5;arcSize=9;fillColor=#FFFFFF;perimeterSpacing=0;absoluteArcSize=1;fontFamily=Arial;movable=1;resizable=1;rotatable=1;deletable=1;editable=1;locked=0;connectable=1;" vertex="1" parent="1">
          <mxGeometry x="-1430" y="-481" width="759" height="349" as="geometry" />
        </mxCell>
        <mxCell id="vGHhS69KHDKIZuomUPOk-3" value="" style="endArrow=none;html=1;strokeColor=#475E75;bendable=1;rounded=0;endFill=0;endSize=3;strokeWidth=3;fontFamily=Arial;jumpStyle=gap;movable=1;resizable=1;rotatable=1;deletable=1;editable=1;locked=0;connectable=1;" edge="1" parent="1">
          <mxGeometry width="50" height="50" relative="1" as="geometry">
            <mxPoint x="-640" y="-600" as="sourcePoint" />
            <mxPoint x="-1460" y="-600" as="targetPoint" />
            <Array as="points" />
          </mxGeometry>
        </mxCell>
        <mxCell id="vGHhS69KHDKIZuomUPOk-4" value="LOCAL DC" style="text;whiteSpace=wrap;html=1;fontFamily=Arial;movable=1;resizable=1;rotatable=1;deletable=1;editable=1;locked=0;connectable=1;" vertex="1" parent="1">
          <mxGeometry x="-1439.9957142857145" y="-570.9985714285715" width="71" height="36" as="geometry" />
        </mxCell>
        <mxCell id="vGHhS69KHDKIZuomUPOk-5" value="&lt;font color=&quot;#0070f2&quot; style=&quot;font-size: 18px;&quot;&gt;&lt;b&gt;GEMS (ATLAS COPCO / LEWA)&lt;/b&gt;&lt;/font&gt;" style="text;whiteSpace=wrap;html=1;verticalAlign=middle;" vertex="1" parent="1">
          <mxGeometry x="-1680" y="-1080" width="541" height="34" as="geometry" />
        </mxCell>
        <mxCell id="vGHhS69KHDKIZuomUPOk-6" value="" style="group;movable=1;resizable=1;rotatable=1;deletable=1;editable=1;locked=0;connectable=1;" vertex="1" connectable="0" parent="1">
          <mxGeometry x="-1190" y="-394" width="120" height="44" as="geometry" />
        </mxCell>
        <mxCell id="vGHhS69KHDKIZuomUPOk-7" style="edgeStyle=none;rounded=0;orthogonalLoop=1;jettySize=auto;html=1;exitX=0.5;exitY=1;exitDx=0;exitDy=0;movable=1;resizable=1;rotatable=1;deletable=1;editable=1;locked=0;connectable=1;" edge="1" parent="vGHhS69KHDKIZuomUPOk-6" source="vGHhS69KHDKIZuomUPOk-8">
          <mxGeometry relative="1" as="geometry">
            <mxPoint x="60" y="104" as="targetPoint" />
          </mxGeometry>
        </mxCell>
        <mxCell id="vGHhS69KHDKIZuomUPOk-8" value="" style="rounded=1;whiteSpace=wrap;html=1;strokeColor=#0070F2;fillColor=#EBF8FF;arcSize=24;absoluteArcSize=1;imageWidth=64;imageHeight=64;strokeWidth=1.5;movable=1;resizable=1;rotatable=1;deletable=1;editable=1;locked=0;connectable=1;" vertex="1" parent="vGHhS69KHDKIZuomUPOk-6">
          <mxGeometry width="120" height="44" as="geometry" />
        </mxCell>
        <mxCell id="vGHhS69KHDKIZuomUPOk-9" value="&lt;div&gt;&lt;font style=&quot;font-size: 10px;&quot;&gt;ERP&lt;/font&gt;&lt;/div&gt;&lt;div&gt;&lt;font style=&quot;font-size: 10px;&quot;&gt;(BPCS INFOR)&lt;/font&gt;&lt;/div&gt;" style="text;html=1;strokeColor=none;fillColor=none;align=center;verticalAlign=middle;whiteSpace=wrap;rounded=0;fontColor=#004C99;fontSize=8;fontStyle=1;fontFamily=Arial;movable=1;resizable=1;rotatable=1;deletable=1;editable=1;locked=0;connectable=1;" vertex="1" parent="vGHhS69KHDKIZuomUPOk-6">
          <mxGeometry x="26.910936344254424" y="7.5979729729729115" width="90.10573032241221" height="28.804054054054053" as="geometry" />
        </mxCell>
        <mxCell id="vGHhS69KHDKIZuomUPOk-10" value="" style="shape=image;editableCssRules=.*;verticalLabelPosition=bottom;labelBackgroundColor=default;verticalAlign=top;aspect=fixed;imageAspect=0;image=data:image/svg+xml,PHN2ZyB4bWxucz0iaHR0cDovL3d3dy53My5vcmcvMjAwMC9zdmciIHZpZXdCb3g9Ii0wLjUgLTAuNSA0MC45NDEgNDUuMDg4IiBoZWlnaHQ9IjQ1LjA4OCIgd2lkdGg9IjQwLjk0MSI+JiN4YTsJICA8c3R5bGUgdHlwZT0idGV4dC9jc3MiPi5zdDAgeyBzdG9wLWNvbG9yOiByZ2IoMTU1LCAxMTgsIDI1NSk7IH0gLnN0MSB7IHN0b3AtY29sb3I6IHJnYig3MSwgMTIsIDIzNyk7IH0gPC9zdHlsZT4mI3hhOwk8ZGVmcz4mI3hhOwkJPGxpbmVhckdyYWRpZW50IGdyYWRpZW50VW5pdHM9InVzZXJTcGFjZU9uVXNlIiB5Mj0iMzcuNzM4IiB4Mj0iMzcuNjAyIiB5MT0iNS45IiB4MT0iMy4yMTMiIGlkPSJBIj4mI3hhOwkJCTxzdG9wIGNsYXNzPSJzdDAiLz4mI3hhOwkJCTxzdG9wIGNsYXNzPSJzdDEiIG9mZnNldD0iMSIvPiYjeGE7CQk8L2xpbmVhckdyYWRpZW50PiYjeGE7CTwvZGVmcz4mI3hhOwk8cGF0aCBmaWxsPSJ1cmwoI0EpIiBkPSJNMzguMTQ3IDQuMDg4Yy43MDYuNTg4IDEuMjY1IDEuMjM1IDEuNjc2IDEuOTQxLjQxMi42NDcuNjE4IDEuNDQxLjYxOCAyLjM4MnYyNy4zNTNjMCAuODgyLS4yMzUgMS42NzYtLjcwNiAyLjM4MnMtMSAxLjM1My0xLjU4OCAxLjk0MWMtLjUyOS40NzEtMS4yMDYuOTEyLTIuMDMgMS4zMjQtLjc2NS40MTItMS41ODguNzk0LTIuNDcxIDEuMTQ3LTEuODIzLjcwNi0zLjkxMiAxLjIwNi02LjI2NSAxLjUtMi4yOTQuMzUzLTQuNzY1LjUyOS03LjQxMi41MjlzLTUuMTQ3LS4xNzYtNy41LS41MjljLTIuMjk0LS4yOTQtNC4zNTMtLjc5NC02LjE3Ni0xLjVsLTIuNDcxLS45N2E4LjY0IDguNjQgMCAwIDEtMi4wMjktMS41Qy4yNjUgMzguODUzLS41IDM3LjQxMi0uNSAzNS43NjVWOC40MTJjMC0uOTQxLjIzNS0xLjczNS43MDYtMi4zODIuNDcxLS43MDYgMS0xLjM1MyAxLjU4OC0xLjk0MSAxLjE3Ni0xIDIuNjc2LTEuODUzIDQuNS0yLjU1OUM4LjExOC44ODIgMTAuMTc2LjM4MiAxMi40NzEuMDI5YzIuMzUzLS4zNTMgNC44NTMtLjUyOSA3LjUtLjUyOXM1LjExOC4xNzYgNy40MTIuNTI5YzIuMzUzLjM1MyA0LjQ0MS44NTMgNi4yNjUgMS41Ljg4Mi4zNTMgMS43MDYuNzM1IDIuNDcxIDEuMTQ3LjgyNC4zNTMgMS41LjgyNCAyLjAzIDEuNDEyem0tMi4yMDYgMTkuMzI0Yy0yLjc2NS45NDEtNS4zODIgMS42NzYtNy44NTMgMi4yMDYtMi40MTIuNTI5LTUuMTE4Ljc5NC04LjExOC43OTQtMi42NDcgMC01LjE0Ny0uMTc3LTcuNS0uNTI5LTIuMjk0LS4zNTMtNC4zNTMtLjg1My02LjE3Ni0xLjUtLjk0MS0uMjk0LTEuNzA2LS42MTgtMi4yOTQtLjk3MXYzLjE3N2wuMTc2LjM1M2MuMDU5LjExOC4yMzUuMzI0LjUyOS42MTguNzY1LjcwNiAxLjc5NCAxLjI5NCAzLjA4OCAxLjc2NSAxLjM1My40NzEgMi43NjUuODUzIDQuMjM1IDEuMTQ3bDQuMzI0LjUyOSAzLjYxOC4xNzZhNTAuNDUgNTAuNDUgMCAwIDAgNy45NDEtLjYxOGMyLjU4OC0uNDcgNS4wMjktMS40NyA3LjMyMy0zIC4zNTMtLjIzNS41NTktLjQ0MS42MTgtLjYxOC4wNTktLjExOC4wODgtLjIzNS4wODgtLjM1M3ptMC05LjA4OGMtMi43NjUuOTQxLTUuMzgyIDEuNjc2LTcuODUzIDIuMjA2LTIuNDEyLjUyOS01LjExOC43OTQtOC4xMTguNzk0LS44ODIgMC0yLjA1OS0uMDU5LTMuNTI5LS4xNzZsLTQuNTg4LS41MjktNC41LS44ODJjLTEuNDEyLS40MTItMi41MjktLjg4Mi0zLjM1My0xLjQxMlYxNy41YzAgLjA1OS4wMjkuMTQ3LjA4OC4yNjUuMTE4LjA1OS4yMDYuMTQ3LjI2NS4yNjVsLjM1My4zNTNjLjc2NS43NjUgMS43OTQgMS4zODIgMy4wODggMS44NTMgMS4zNTMuNDcxIDIuNzY1Ljg1MyA0LjIzNSAxLjE0N2w0LjMyNC41MjkgMy42MTguMTc2YzIuNzA2IDAgNS4zNTMtLjIzNSA3Ljk0MS0uNzA2czUuMDI5LTEuNDcxIDcuMzIzLTNjLjM1My0uMjM1LjU1OS0uNDQxLjYxOC0uNjE4LjA1OS0uMTE4LjA4OC0uMjA2LjA4OC0uMjY1ek00LjcwNiA3LjUyOWMtLjI5NC4xMTgtLjUuMzI0LS42MTguNjE4LS4wNTkuMTE4LS4wODguMjA2LS4wODguMjY1cy4wMjkuMTQ3LjA4OC4yNjVjLjExOC4wNTkuMjA2LjE0Ny4yNjUuMjY1bC4zNTMuMzUzYy43NjUuNzY1IDEuNzk0IDEuMzgyIDMuMDg4IDEuODUzIDEuMzUzLjQ3MSAyLjc2NS44NTMgNC4yMzUgMS4xNDdsNC4zMjQuNTI5IDMuNjE4LjE3NmMyLjQxMiAwIDQuNjQ3LS4xNDcgNi43MDYtLjQ0MSAyLjA1OS0uMzUzIDMuODUzLS44MjQgNS4zODItMS40MTJsMy4xNzYtMS44NTNjLjM1My0uMjM1LjU1OS0uNDQxLjYxOC0uNjE4LjA1OS0uMTE4LjA4OC0uMjA2LjA4OC0uMjY1LS4wNTktLjA1OS0uMTE3LS4xNDctLjE3Ni0uMjY1cy0uMjM1LS4zMjQtLjUyOS0uNjE4Yy0uNzY1LS43NjUtMS44MjMtMS4zODItMy4xNzYtMS44NTMtMS4yOTQtLjQ3MS0yLjY3Ni0uODI0LTQuMTQ3LTEuMDU5LTEuNDcxLS4yOTQtMi45NDEtLjUtNC40MTItLjYxOGwtMy41MjktLjE3NmMtMi43MDYgMC01LjM1My4yMzUtNy45NDEuNzA2UzcgNiA0LjcwNiA3LjUyOXptMzAuNTI5IDI5LjExOGMuMzUzLS4yMzUuNTU5LS40NDEuNjE4LS42MTguMDU5LS4xMTcuMDg4LS4yMDYuMDg4LS4yNjVWMzIuNWMtLjA1OS4wNTktLjExNy4wODgtLjE3Ni4wODhzLS4wODguMDI5LS4wODguMDg4SDM1LjVsLS4xNzYuMDg4Yy0uMDU5LjA1OS0uMTE4LjA4OC0uMTc2LjA4OC0yLjY0NyAxLTUuMTQ3IDEuNzA2LTcuNSAyLjExOC0yLjI5NC4zNTMtNC44NTMuNTI5LTcuNjc2LjUyOS0uODgyIDAtMi4wNTktLjA1OS0zLjUyOS0uMTc2bC00LjU4OC0uNTI5LTQuNS0uODgyQzUuOTQxIDMzLjUgNC44MjQgMzMuMDI5IDQgMzIuNXYzLjI2NWMwIC4wNTkuMDI5LjE0Ny4wODguMjY1LjA1OS4xNzYuMjY1LjM4My42MTguNjE4Ljc2NS43NjUgMS43OTQgMS4zODIgMy4wODggMS44NTMgMS4zNTMuNDcxIDIuNzY1Ljg1MyA0LjIzNSAxLjE0N2w0LjMyNC41MjkgMy42MTguMDg4YzIuNzA2IDAgNS4zNTMtLjIwNiA3Ljk0MS0uNjE4IDIuNTg4LS40NzEgNS4wMjktMS40NyA3LjMyMy0zeiIvPiYjeGE7PC9zdmc+;movable=1;resizable=1;rotatable=1;deletable=1;editable=1;locked=0;connectable=1;" vertex="1" parent="vGHhS69KHDKIZuomUPOk-6">
          <mxGeometry x="9.58" y="12.489999999999998" width="17.33" height="19.02" as="geometry" />
        </mxCell>
        <mxCell id="vGHhS69KHDKIZuomUPOk-11" style="edgeStyle=orthogonalEdgeStyle;rounded=0;orthogonalLoop=1;jettySize=auto;html=1;exitX=0.5;exitY=1;exitDx=0;exitDy=0;movable=1;resizable=1;rotatable=1;deletable=1;editable=1;locked=0;connectable=1;" edge="1" parent="1" source="vGHhS69KHDKIZuomUPOk-1" target="vGHhS69KHDKIZuomUPOk-1">
          <mxGeometry relative="1" as="geometry" />
        </mxCell>
        <mxCell id="vGHhS69KHDKIZuomUPOk-12" value="" style="shape=image;verticalLabelPosition=bottom;labelBackgroundColor=default;verticalAlign=top;imageAspect=0;image=data:image/svg+xml,PHN2ZyB4bWxucz0iaHR0cDovL3d3dy53My5vcmcvMjAwMC9zdmciIGZpbGw9Im5vbmUiIHZpZXdCb3g9IjAgMCAxNyAxMiIgaGVpZ2h0PSIxMiIgd2lkdGg9IjE3Ij4mI3hhOzxwYXRoIGZpbGw9InVybCgjcGFpbnQwX2xpbmVhcl83MjRfMTQpIiBkPSJNMTIuMzQ2MSAxMS45OTc0SDMuODE0ODVDMy4zNTY1MiAxMS45OTc0IDIuOTE5MDIgMTEuOTAzNiAyLjUwMjM1IDExLjcxNjJDMi4wODU2OCAxMS41MDc4IDEuNzIxMSAxMS4yMzcgMS40MDg2IDEwLjkwMzZDMS4wOTYxIDEwLjU0OTUgMC44NDYxIDEwLjE0MzIgMC42NTg2IDkuNjg0OTFDMC40OTE5MyA5LjIyNjYxIDAuNDA4NiA4LjczNzAxIDAuNDA4NiA4LjIxNjIxQzAuNDA4NiA3LjcxNjE2IDAuNDkxOTMgNy4yMzY5OSAwLjY1ODYgNi43Nzg2NkMwLjg0NjEgNi4zMjAzMyAxLjA4NTY4IDUuOTI0NDkgMS4zNzczNSA1LjU5MTE2QzEuNjY5MDIgNS4yMzY5OSAyLjAxMjc3IDQuOTY2MTYgMi40MDg2IDQuNzc4NjZDMi44MjUyNyA0LjU3MDMzIDMuMjYyNzcgNC40NjYxNiAzLjcyMTEgNC40NjYxNkMzLjgyNTI3IDMuODQxMTYgNC4wMTI3NyAzLjI1NzgzIDQuMjgzNiAyLjcxNjE2QzQuNTU0NDMgMi4xNTM2NiA0Ljg5ODE4IDEuNjc0NDkgNS4zMTQ4NSAxLjI3ODY2QzUuNzMxNTIgMC44ODI4MzQgNi4yMDAyNyAwLjU3MDMzNCA2LjcyMTEgMC4zNDExNjRDNy4yNjI3NyAwLjExMTk5NCA3LjgyNTI3IC0wLjAwMjU4NjM2IDguNDA4NiAtMC4wMDI1ODYzNkM5LjMwNDQzIC0wLjAwMjU4NjM2IDEwLjEzNzcgMC4yNjgyNDQgMTAuOTA4NiAwLjgwOTkxNEMxMS42Nzk0IDEuMzUxNTggMTIuMjczMSAyLjA4MDc0IDEyLjY4OTggMi45OTc0MUMxMy4yMTA2IDMuMDM5MDggMTMuNzAwMiAzLjE4NDkxIDE0LjE1ODYgMy40MzQ5MUMxNC42MTY5IDMuNjg0OTEgMTUuMDEyOCA0LjAxODI0IDE1LjM0NjEgNC40MzQ5MUMxNS42Nzk1IDQuODMwNzQgMTUuOTM5OCA1LjI4OTA4IDE2LjEyNzMgNS44MDk5MUMxNi4zMTQ4IDYuMzMwNzQgMTYuNDA4NiA2Ljg5MzI0IDE2LjQwODYgNy40OTc0MUMxNi40MDg2IDguMTIyNDEgMTYuMzA0NSA4LjcxNjIxIDE2LjA5NjEgOS4yNzg2MUMxNS44ODc4IDkuODIwMzEgMTUuNTk2MSAxMC4yOTk1IDE1LjIyMTEgMTAuNzE2MkMxNC44NjcgMTEuMTEyIDE0LjQzOTggMTEuNDI0NSAxMy45Mzk4IDExLjY1MzZDMTMuNDM5OCAxMS44ODI4IDEyLjkwODcgMTEuOTk3NCAxMi4zNDYxIDExLjk5NzRaTTMuODE0ODUgNi4wNTk5MUMzLjMxNDg1IDYuMDU5OTEgMi44ODc3NyA2LjI2ODI0IDIuNTMzNiA2LjY4NDkxQzIuMTc5NDMgNy4xMDE1OCAyLjAwMjM1IDcuNjExOTkgMi4wMDIzNSA4LjIxNjIxQzIuMDAyMzUgOC44MjAzMSAyLjE3OTQzIDkuMzQxMjEgMi41MzM2IDkuNzc4NjFDMi44ODc3NyAxMC4xOTUzIDMuMzE0ODUgMTAuNDAzNiAzLjgxNDg1IDEwLjQwMzZIMTIuMzQ2MUMxMy4wMzM3IDEwLjQwMzYgMTMuNjE3IDEwLjEyMjQgMTQuMDk2MSA5LjU1OTkxQzE0LjU3NTMgOC45OTc0MSAxNC44MTQ4IDguMzA5OTEgMTQuODE0OCA3LjQ5NzQxQzE0LjgxNDggNi42NjQwOCAxNC41NzUzIDUuOTY2MTYgMTQuMDk2MSA1LjQwMzY2QzEzLjYxNyA0Ljg0MTE2IDEzLjAzMzcgNC41NTk5MSAxMi4zNDYxIDQuNTU5OTFIMTIuMTI3M0MxMS43NzMxIDQuNTU5OTEgMTEuNTIzMSA0LjM4MjgzIDExLjM3NzMgNC4wMjg2NkMxMS4xMjczIDMuMjk5NDkgMTAuNzMxNSAyLjcxNjE2IDEwLjE4OTggMi4yNzg2NkM5LjY0ODE1IDEuODIwMzMgOS4wNTQ0MyAxLjU5MTE2IDguNDA4NiAxLjU5MTE2QzcuOTcxMSAxLjU5MTE2IDcuNTY0ODUgMS42OTUzMyA3LjE4OTg1IDEuOTAzNjZDNi44MTQ4NSAyLjA5MTE2IDYuNDgxNTIgMi4zNTE1OCA2LjE4OTg1IDIuNjg0OTFDNS45MTkwMiAyLjk5NzQxIDUuNzAwMjcgMy4zODI4MyA1LjUzMzYgMy44NDExNkM1LjM2NjkzIDQuMjc4NjYgNS4yODM2IDQuNzQ3NDEgNS4yODM2IDUuMjQ3NDFDNS4yODM2IDUuNDc2NTggNS4yMDAyNyA1LjY3NDQ5IDUuMDMzNiA1Ljg0MTE2QzQuODg3NzcgNS45ODY5OSA0LjcwMDI3IDYuMDU5OTEgNC40NzExIDYuMDU5OTFIMy44MTQ4NVoiLz4mI3hhOzxkZWZzPiYjeGE7PGxpbmVhckdyYWRpZW50IGdyYWRpZW50VW5pdHM9InVzZXJTcGFjZU9uVXNlIiB5Mj0iMTAuMzM3MyIgeDI9IjE0LjI2MDIiIHkxPSIxLjEyNjIzIiB4MT0iMi40NzY0NiIgaWQ9InBhaW50MF9saW5lYXJfNzI0XzE0Ij4mI3hhOzxzdG9wIHN0b3AtY29sb3I9IiMyMzk1RkYiLz4mI3hhOzxzdG9wIHN0b3AtY29sb3I9IiMwMDU3RDIiIG9mZnNldD0iMSIvPiYjeGE7PC9saW5lYXJHcmFkaWVudD4mI3hhOzwvZGVmcz4mI3hhOzwvc3ZnPg==;strokeWidth=1.5;aspect=fixed;fontFamily=Arial;container=0;" vertex="1" parent="1">
          <mxGeometry x="-1409.9993510299787" y="-953.9999476439791" width="28" height="17.89" as="geometry" />
        </mxCell>
        <mxCell id="vGHhS69KHDKIZuomUPOk-13" value="INTERNET" style="text;whiteSpace=wrap;html=1;fontFamily=Arial;" vertex="1" parent="1">
          <mxGeometry x="-1431" y="-990" width="71" height="26" as="geometry" />
        </mxCell>
        <mxCell id="vGHhS69KHDKIZuomUPOk-14" value="" style="group;movable=1;resizable=1;rotatable=1;deletable=1;editable=1;locked=0;connectable=1;" vertex="1" connectable="0" parent="1">
          <mxGeometry x="-1360" y="-394" width="120" height="44" as="geometry" />
        </mxCell>
        <mxCell id="vGHhS69KHDKIZuomUPOk-15" value="" style="rounded=1;whiteSpace=wrap;html=1;strokeColor=#0070F2;fillColor=#EBF8FF;arcSize=24;absoluteArcSize=1;imageWidth=64;imageHeight=64;strokeWidth=1.5;movable=1;resizable=1;rotatable=1;deletable=1;editable=1;locked=0;connectable=1;" vertex="1" parent="vGHhS69KHDKIZuomUPOk-14">
          <mxGeometry width="120" height="44" as="geometry" />
        </mxCell>
        <mxCell id="vGHhS69KHDKIZuomUPOk-16" value="&lt;font style=&quot;font-size: 10px;&quot;&gt;PLM&lt;/font&gt;" style="text;html=1;strokeColor=none;fillColor=none;align=center;verticalAlign=middle;whiteSpace=wrap;rounded=0;fontColor=#004C99;fontSize=8;fontStyle=1;fontFamily=Arial;movable=1;resizable=1;rotatable=1;deletable=1;editable=1;locked=0;connectable=1;" vertex="1" parent="vGHhS69KHDKIZuomUPOk-14">
          <mxGeometry x="26.910936344254424" y="7.5979729729729115" width="90.10573032241221" height="28.804054054054053" as="geometry" />
        </mxCell>
        <mxCell id="vGHhS69KHDKIZuomUPOk-17" value="" style="shape=image;editableCssRules=.*;verticalLabelPosition=bottom;labelBackgroundColor=default;verticalAlign=top;aspect=fixed;imageAspect=0;image=data:image/svg+xml,PHN2ZyB4bWxucz0iaHR0cDovL3d3dy53My5vcmcvMjAwMC9zdmciIHZpZXdCb3g9Ii0wLjUgLTAuNSAyOCAyOCIgaGVpZ2h0PSIyOCIgd2lkdGg9IjI4Ij4mI3hhOwkgIDxzdHlsZSB0eXBlPSJ0ZXh0L2NzcyI+LnN0MCB7IHN0b3AtY29sb3I6IHJnYigzNSwgMTQ5LCAyNTUpOyB9IC5zdDEgeyBzdG9wLWNvbG9yOiByZ2IoMCwgODcsIDIxMCk7IH0gPC9zdHlsZT4mI3hhOwk8ZGVmcz4mI3hhOwkJPGxpbmVhckdyYWRpZW50IGdyYWRpZW50VW5pdHM9InVzZXJTcGFjZU9uVXNlIiB5Mj0iMjUuMzA5IiB4Mj0iMjMuNDU0IiB5MT0iMy40NzQiIHgxPSIyLjAzOSIgaWQ9IkEiPiYjeGE7CQkJPHN0b3AgY2xhc3M9InN0MCIvPiYjeGE7CQkJPHN0b3AgY2xhc3M9InN0MSIgb2Zmc2V0PSIxIi8+JiN4YTsJCTwvbGluZWFyR3JhZGllbnQ+JiN4YTsJPC9kZWZzPiYjeGE7CTxwYXRoIGZpbGw9InVybCgjQSkiIGQ9Ik0yNi45OTYgMTIuNDIybC02LjY1LTUuNTE2YTEuNCAxLjQgMCAwIDAtMS40ODQtLjE5NmMtLjQ5LjIyNC0uNzk4LjcyOC0uNzk4IDEuMjc0djIuNTM0TDEzLjcxIDYuOTA2YTEuNCAxLjQgMCAwIDAtMS40ODQtLjE5NmMtLjQ5LjIyNC0uNzk4LjcyOC0uNzk4IDEuMjc0VjEyLjFIOC41ODZWLjljMC0uNzctLjYzLTEuNC0xLjQtMS40SC45Qy4xMy0uNS0uNS4xMy0uNS45djI1LjJjMCAuNzcuNjMgMS40IDEuNCAxLjRoMjUuMmMuNzcgMCAxLjQtLjYzIDEuNC0xLjRWMTMuNWExLjM5IDEuMzkgMCAwIDAtLjUwNC0xLjA3OHpNNS43NTggMjQuN0gyLjN2LTMuNWgzLjQ1OHptMC02LjNIMi4zdi0zLjVoMy40NTh6bTAtNi4zSDIuM1Y4LjgyNGgzLjQ1OHptMC02LjA3NkgyLjNWMi4zaDMuNDU4ek0yNC42ODYgMjQuN0g4LjU1OHYtMy41aDEuODQ4Yy43NyAwIDEuNC0uNjMgMS40LTEuNHMtLjYzLTEuNC0xLjQtMS40SDguNTU4di0zLjVIMTIuOGMuNzcgMCAxLjQtLjYzIDEuNC0xLjR2LTIuNTM0bDQuMzU0IDMuNjEyYTEuNCAxLjQgMCAwIDAgMS40ODQuMTk2Yy40OS0uMjI0Ljc5OC0uNzI4Ljc5OC0xLjI3NHYtMi41MzRsMy44NSAzLjE5MnptLTkuMzY2LTMuMTVhMS43NSAxLjc1IDAgMSAwIDAtMy41IDEuNzUgMS43NSAwIDEgMCAwIDMuNXptNi45My0xLjc1YTEuNzUgMS43NSAwIDEgMS0zLjUgMCAxLjc1IDEuNzUgMCAxIDEgMy41IDB6IiBmaWxsLXJ1bGU9ImV2ZW5vZGQiLz4mI3hhOzwvc3ZnPg==;movable=1;resizable=1;rotatable=1;deletable=1;editable=1;locked=0;connectable=1;" vertex="1" parent="vGHhS69KHDKIZuomUPOk-14">
          <mxGeometry x="10" y="13" width="18" height="18" as="geometry" />
        </mxCell>
        <mxCell id="vGHhS69KHDKIZuomUPOk-18" value="" style="group;movable=1;resizable=1;rotatable=1;deletable=1;editable=1;locked=0;connectable=1;" vertex="1" connectable="0" parent="1">
          <mxGeometry x="-1190" y="-290" width="120" height="44" as="geometry" />
        </mxCell>
        <mxCell id="vGHhS69KHDKIZuomUPOk-19" value="" style="rounded=1;whiteSpace=wrap;html=1;strokeColor=#0070F2;fillColor=#EBF8FF;arcSize=24;absoluteArcSize=1;imageWidth=64;imageHeight=64;strokeWidth=1.5;movable=1;resizable=1;rotatable=1;deletable=1;editable=1;locked=0;connectable=1;" vertex="1" parent="vGHhS69KHDKIZuomUPOk-18">
          <mxGeometry width="120" height="44" as="geometry" />
        </mxCell>
        <mxCell id="vGHhS69KHDKIZuomUPOk-20" value="&lt;font style=&quot;font-size: 10px;&quot;&gt;REPORTING&lt;/font&gt;" style="text;html=1;strokeColor=none;fillColor=none;align=center;verticalAlign=middle;whiteSpace=wrap;rounded=0;fontColor=#004C99;fontSize=8;fontStyle=1;fontFamily=Arial;movable=1;resizable=1;rotatable=1;deletable=1;editable=1;locked=0;connectable=1;" vertex="1" parent="vGHhS69KHDKIZuomUPOk-18">
          <mxGeometry x="26.910936344254424" y="7.5979729729729115" width="90.10573032241221" height="28.804054054054053" as="geometry" />
        </mxCell>
        <mxCell id="vGHhS69KHDKIZuomUPOk-21" value="" style="shape=image;editableCssRules=.*;verticalLabelPosition=bottom;labelBackgroundColor=default;verticalAlign=top;aspect=fixed;imageAspect=0;image=data:image/svg+xml,PHN2ZyB4bWxucz0iaHR0cDovL3d3dy53My5vcmcvMjAwMC9zdmciIHZpZXdCb3g9Ii0wLjUgLTAuNSAyNS4yIDI4IiBoZWlnaHQ9IjI4IiB3aWR0aD0iMjUuMiI+JiN4YTsJICA8c3R5bGUgdHlwZT0idGV4dC9jc3MiPi5zdDAgeyBzdG9wLWNvbG9yOiByZ2IoMzUsIDE0OSwgMjU1KTsgfSAuc3QxIHsgc3RvcC1jb2xvcjogcmdiKDAsIDg3LCAyMTApOyB9IDwvc3R5bGU+JiN4YTsJPGRlZnM+JiN4YTsJCTxsaW5lYXJHcmFkaWVudCBncmFkaWVudFVuaXRzPSJ1c2VyU3BhY2VPblVzZSIgeTI9IjIzLjA1NyIgeDI9IjIzLjEyNiIgeTE9IjMuNDc0IiB4MT0iMS43ODUiIGlkPSJBIj4mI3hhOwkJCTxzdG9wIGNsYXNzPSJzdDAiLz4mI3hhOwkJCTxzdG9wIGNsYXNzPSJzdDEiIG9mZnNldD0iMSIvPiYjeGE7CQk8L2xpbmVhckdyYWRpZW50PiYjeGE7CTwvZGVmcz4mI3hhOwk8cGF0aCBmaWxsPSJ1cmwoI0EpIiBkPSJNMTEuNzU3LS40ODNDMTEuNDQ1LS40MDEuMTg0IDQuNzExLjAyIDQuODM3YTEuNzkgMS43OSAwIDAgMC0uMzU2LjQ3MWwtLjE2NC4zMjN2Ny44ODJWMjEuNGwuMTM3LjI2OGMuMDc3LjE0OC4yMjQuMzQ1LjMzOS40MzguMTMxLjExNSAyLjE3MiAxLjA2MiA1Ljk1OSAyLjc2NCA2LjE4MyAyLjc4MSA2LjA3NCAyLjczNyA2LjU3NyAyLjU2Mi4zOTktLjEzNyAxMS4zNy01LjA4NSAxMS41OTUtNS4yMjcuMjMtLjE0OC40Ni0uNDYuNTM2LS43MjguMDgyLS4yNzQuMDcxLTE1LjY2NS0uMDA2LTE1Ljk1LS4wODItLjI4NS0uMzM0LS42MzUtLjU1OC0uNzY2LS4wOTMtLjA2LTIuNzM2LTEuMjY0LTUuODY2LTIuNjcxLTUuMTYtMi4zMjYtNS43MjQtMi41NjctNi4wMTktMi41ODQtLjE4MS0uMDExLS4zNzgtLjAwNS0uNDM4LjAxMXptNC4yMjQgNC42NTNsMy44MDggMS43NzNjLS4wNjYuMDY2LTcuNTg0IDMuNDQ4LTcuNjc3IDMuNDU0YTM0OS43NSAzNDkuNzUgMCAwIDEtNy43MjYtMy40NTRjLS4wMzMtLjAyNyA3LjU3My0zLjQ5MiA3LjY5My0zLjUwMy4wMjctLjAwNSAxLjc4NC43NzIgMy45MDEgMS43M3ptLTkuNDIzIDUuODQ2bDQuMTMxIDEuODYxdjYuMDA1bC0uMDM4IDYuMDFjLS4wMTYgMC0xLjkwNC0uODQzLTQuMTg2LTEuODY3bC00LjE0OC0xLjg3MnYtNi4wMTVsLjA1NS01Ljk5OWMuMDI3LjAwNSAxLjkxLjg1NCA0LjE4NiAxLjg3N3ptMTUuMzQ5IDQuMTIydjYuMDFsLTQuMTE1IDEuODU1LTQuMjEzIDEuODc4Yy0uMDkzLjAyMi0uMDk4LS4yNzQtLjA4OC01Ljk4OGwuMDE2LTYuMDEgNC4xNTgtMS44NzcgNC4yMDMtMS44NzdjLjAyMiAwIC4wMzggMi43MDQuMDM4IDYuMDF6Ii8+JiN4YTs8L3N2Zz4=;movable=1;resizable=1;rotatable=1;deletable=1;editable=1;locked=0;connectable=1;" vertex="1" parent="vGHhS69KHDKIZuomUPOk-18">
          <mxGeometry x="10" y="12.53" width="16.91" height="18.94" as="geometry" />
        </mxCell>
        <mxCell id="vGHhS69KHDKIZuomUPOk-22" style="edgeStyle=none;rounded=0;orthogonalLoop=1;jettySize=auto;html=1;exitX=1;exitY=0.5;exitDx=0;exitDy=0;movable=1;resizable=1;rotatable=1;deletable=1;editable=1;locked=0;connectable=1;" edge="1" parent="1" source="vGHhS69KHDKIZuomUPOk-15" target="vGHhS69KHDKIZuomUPOk-8">
          <mxGeometry relative="1" as="geometry" />
        </mxCell>
        <mxCell id="vGHhS69KHDKIZuomUPOk-23" value="" style="rounded=1;whiteSpace=wrap;html=1;strokeColor=#0070f2;strokeWidth=1.5;arcSize=14;fillColor=#FFFFFF;perimeterSpacing=0;absoluteArcSize=1;fontFamily=Arial;" vertex="1" parent="1">
          <mxGeometry x="-1080" y="-980" width="113" height="100" as="geometry" />
        </mxCell>
        <mxCell id="vGHhS69KHDKIZuomUPOk-24" value="Cloud Service" style="shape=image;editableCssRules=.*;verticalLabelPosition=bottom;labelBackgroundColor=default;verticalAlign=top;aspect=fixed;imageAspect=0;image=data:image/svg+xml,PHN2ZyB4bWxucz0iaHR0cDovL3d3dy53My5vcmcvMjAwMC9zdmciIHZpZXdCb3g9Ii0wLjUgLTAuNSAyOCAyOCIgaGVpZ2h0PSIyOCIgd2lkdGg9IjI4Ij4mI3hhOwkgIDxzdHlsZSB0eXBlPSJ0ZXh0L2NzcyI+LnN0MCB7IHN0b3AtY29sb3I6IHJnYigzNSwgMTQ5LCAyNTUpOyB9IC5zdDEgeyBzdG9wLWNvbG9yOiByZ2IoMCwgODcsIDIxMCk7IH0gPC9zdHlsZT4mI3hhOwk8ZGVmcz4mI3hhOwkJPGxpbmVhckdyYWRpZW50IGdyYWRpZW50VW5pdHM9InVzZXJTcGFjZU9uVXNlIiB5Mj0iMjUuMzA5IiB4Mj0iMjMuNDU0IiB5MT0iMy40NzQiIHgxPSIyLjAzOSIgaWQ9IkEiPiYjeGE7CQkJPHN0b3AgY2xhc3M9InN0MCIvPiYjeGE7CQkJPHN0b3AgY2xhc3M9InN0MSIgb2Zmc2V0PSIxIi8+JiN4YTsJCTwvbGluZWFyR3JhZGllbnQ+JiN4YTsJPC9kZWZzPiYjeGE7CTxwYXRoIGZpbGw9InVybCgjQSkiIGQ9Ik0yMS43NDcgMTMuMmExMS4zNSAxMS4zNSAwIDAgMSA0LjE2NCAzLjk0NWMxLjA1OSAxLjY4IDEuNTg5IDMuNTc5IDEuNTg5IDUuNjk5djMuMTIzYzAgMS4wMjItLjUzIDEuNTM0LTEuNTg5IDEuNTM0SDcuMjgyYy0uNDc1IDAtLjg1OS0uMTQ2LTEuMTUyLS40MzgtLjI5MS0uMjU2LS40MzgtLjYyMS0uNDM4LTEuMDk2di0xLjU4OUgxLjAzNGMtMS4wMjIgMC0xLjUzNC0uNTEyLTEuNTM0LTEuNTM0VjE5LjcyYTcuMjcgNy4yNyAwIDAgMSAxLjI2MS00LjE2NmMuODAzLTEuMjA5IDEuOTIxLTIuMTc1IDMuMjMzLTIuNzkzLS40NjQtLjUyOC0uODE4LTEuMTQzLTEuMDQyLTEuODA5YTYuODggNi44OCAwIDAgMS0uMzMtMi4wODFjMC0uODc3LjE2NS0xLjY4LjQ5NC0yLjQxMWE2LjE3IDYuMTcgMCAwIDEgMS4zMTUtMS45NzNjLjU2OC0uNTczIDEuMjM3LTEuMDM3IDEuOTczLTEuMzY5YTYuMDYgNi4wNiAwIDAgMSAyLjQxMS0uNDkzYy4yNTYgMCAuNDkzLjAxOC43MTIuMDUzYTIuNjUgMi42NSAwIDAgMSAuNzEyLjExQTcuNDEgNy40MSAwIDAgMSAxMi45MjYuMzc3YzEuMTM0LS41ODUgMi4zOTQtLjg4NiAzLjY3LS44NzcgMS4wOTYgMCAyLjEyLjIwMiAzLjA2OC42MDNzMS43NzEuOTY4IDIuNDY1IDEuNjk5Yy42OTQuNjk0IDEuMjQzIDEuNTE1IDEuNjQ1IDIuNDY1LjQwMy45MTIuNjAzIDEuOTE4LjYwMyAzLjAxNC4wMDMgMS4xNTItLjIzOSAyLjI5MS0uNzEyIDMuMzQyLS40MjIgMS4wMDEtMS4wOCAxLjg4NS0xLjkxOCAyLjU3NnpNMTYuNTk0IDIuNjIzYy0xLjMxNSAwLTIuNDI4LjQ1Ni0zLjM0MiAxLjM3MS0uODc3Ljg3Ny0xLjMxNSAxLjk3My0xLjMxNSAzLjI4OHMuNDM4IDIuNDI4IDEuMzE1IDMuMzQyYy45MTIuODc3IDIuMDI3IDEuMzE1IDMuMzQyIDEuMzE1czIuNDExLS40MzggMy4yODgtMS4zMTVhNC41NCA0LjU0IDAgMCAwIDEuMzY5LTMuMzQyYzAtMS4zMTUtLjQ1Ni0yLjQxMS0xLjM2OC0zLjI4OC0uODc3LS45MTQtMS45NzQtMS4zNzEtMy4yODktMS4zNzF6TTguNjUxIDUuNzQ5Yy0uODQyIDAtMS41NzEuMzEtMi4xOTIuOTMxLS41ODQuNTg0LS44NzcgMS4zMTUtLjg3NyAyLjE5MmEzLjA5IDMuMDkgMCAwIDAgLjg3NyAyLjE5MiAzLjA5IDMuMDkgMCAwIDAgMi4xOTIuODc3aDEuNzUzYTcuOTggNy45OCAwIDAgMS0xLjE1LTIuMTM3IDcuNjMgNy42MyAwIDAgMS0uNDM4LTIuNTJ2LS43NzFhNC4wMSA0LjAxIDAgMCAxIC4xNjMtLjc2NmgtLjMyOHpNMi42MjMgMjEuMzExaDMuMjMzYy4zMy0yLjUyMSAxLjM2OS00LjYwMyAzLjEyMy02LjI0N0g3LjI4M2MtMS4zMTUgMC0yLjQzLjQ1Ni0zLjM0NCAxLjM2OS0uODc3Ljg3Ny0xLjMxNSAxLjk3NC0xLjMxNSAzLjI4OXptMjEuNzU0IDEuNTM0YTcuNCA3LjQgMCAwIDAtLjYwMy0zLjAxNGMtLjM4My0uOTIxLS45NDItMS43NTgtMS42NDUtMi40NjVhNy4yNiA3LjI2IDAgMCAwLTIuNDY1LTEuNjk5Yy0uOTcxLS40MDYtMi4wMTUtLjYxMS0zLjA2OC0uNjAzLTEuMDk2IDAtMi4xMTguMjAyLTMuMDY4LjYwMy0uOTEyLjQwMy0xLjczNi45NjgtMi40NjUgMS42OTlhNy42NyA3LjY3IDAgMCAwLTEuNjQ1IDIuNDY1IDcuNCA3LjQgMCAwIDAtLjYwMSAzLjAxNHYxLjUzNGgxNS41NjF6Ii8+JiN4YTs8L3N2Zz4=;fontStyle=1" vertex="1" parent="1">
          <mxGeometry x="-1039.25" y="-960" width="31.5" height="31.5" as="geometry" />
        </mxCell>
      </root>
    </mxGraphModel>
  </diagram>
</mxfile>
